<svg xmlns="http://www.w3.org/2000/svg" viewBox="0 0 45.59 55.71"><defs><style>.cls-1{fill:#76e1e5;}.cls-2{fill:#f59d15;}.cls-3{fill:#5f6465;}</style></defs><title>Asset 6</title><g id="Layer_2" data-name="Layer 2"><g id="Layer_7" data-name="Layer 7"><circle class="cls-1" cx="40.71" cy="16.69" r="3.45"/><circle class="cls-1" cx="38.18" cy="9.47" r="1.8"/><circle class="cls-1" cx="34.53" cy="5.72" r="1.8"/><circle class="cls-1" cx="29.36" cy="3.19" r="1.8"/><circle class="cls-1" cx="23.76" cy="2.57" r="1.8"/><path class="cls-2" d="M15.49,53.63a23,23,0,0,1-11.66-5,10.69,10.69,0,0,1-3.66-6C-.71,38.88,2,36.21,5.79,37.23A22.74,22.74,0,0,1,10.22,39a6,6,0,0,0,6-.23c1.32-.76,2.6-1.61,3.91-2.4,2.26-1.37,4.61-3.09,7.27-1.25a8.57,8.57,0,0,1,3.72,8.13c-.53,6.59-6.28,11.14-13.41,10.71C16.94,53.88,16.21,53.73,15.49,53.63Z"/><path class="cls-2" d="M36.69,32.5a3.75,3.75,0,0,1-4.48,3.44,3.76,3.76,0,0,1-3.32-4.57A3.94,3.94,0,0,1,33.48,28,3.83,3.83,0,0,1,36.69,32.5Z"/><path class="cls-2" d="M33.38,51.8a2.08,2.08,0,0,1-1.87-2.33,2.32,2.32,0,0,1,2.75-1.81A1.91,1.91,0,0,1,36,50,2.16,2.16,0,0,1,33.38,51.8Z"/><path class="cls-2" d="M37.88,38.87a2.43,2.43,0,0,1-2.66,1.94,1.88,1.88,0,0,1-1.57-2.28,2.79,2.79,0,0,1,2.91-2A2,2,0,0,1,37.88,38.87Z"/><path class="cls-2" d="M35.36,46.08a1.9,1.9,0,0,1-1.8-2.15A2.25,2.25,0,0,1,36.2,42a1.84,1.84,0,0,1,1.69,2.21A2.22,2.22,0,0,1,35.36,46.08Z"/><path class="cls-2" d="M29.27,55.67c-.91-.22-1.79-.73-1.46-2a2.31,2.31,0,0,1,2.79-1.78A1.78,1.78,0,0,1,32.23,54C32.15,55.11,30.75,55.92,29.27,55.67Z"/><path class="cls-1" d="M8.33,23.59a23.39,23.39,0,0,1,7.31-13.27C20.17,6.21,26.42,5.79,31,9.24a9.17,9.17,0,0,1,3.73,8.16,4.4,4.4,0,0,1-2.78,4,17.36,17.36,0,0,1-5.31,1.34c-4,.5-6.73,2.23-7.83,6.31a6.71,6.71,0,0,1-3.46,4.55c-2.06,1-3.62.71-5-1.12C8.37,30,7.83,27.07,8.33,23.59Z"/><path class="cls-3" d="M13.18,35a4.43,4.43,0,0,1-3.57-2c-2-2.64-2.7-5.67-2.14-9.53v0A24.33,24.33,0,0,1,15.06,9.68c4.8-4.37,11.56-4.83,16.43-1.13a10,10,0,0,1,4.07,8.89,5.26,5.26,0,0,1-3.28,4.73,18,18,0,0,1-5.58,1.42c-4,.5-6.17,2.25-7.09,5.68a7.54,7.54,0,0,1-3.92,5.1A5.85,5.85,0,0,1,13.18,35Zm-4-11.28c-.49,3.36.08,6,1.8,8.21,1.11,1.45,2.22,1.7,3.94.86a5.85,5.85,0,0,0,3-4c1.1-4.09,3.9-6.36,8.56-6.95a16.65,16.65,0,0,0,5.05-1.26,3.54,3.54,0,0,0,2.28-3.25,8.29,8.29,0,0,0-3.38-7.43c-4.19-3.19-10-2.76-14.22,1A22.61,22.61,0,0,0,9.19,23.74Z"/><path class="cls-3" d="M44.8,14.25A5.26,5.26,0,0,0,41.51,12a5.06,5.06,0,0,0-1.22-.09h0a2.4,2.4,0,0,0,1-1.75A2.93,2.93,0,0,0,38.56,7a3.84,3.84,0,0,0-1.32,0,4,4,0,0,0,.17-.64A2.8,2.8,0,0,0,35,3.07l-.12,0h-.12a3.53,3.53,0,0,0-2.83,1.32,3.15,3.15,0,0,0,.2-.7A2.78,2.78,0,0,0,29.84.35h-.06A3.36,3.36,0,0,0,27.16,1a2.88,2.88,0,0,0-.77.91A2.33,2.33,0,0,0,24.19,0a3.16,3.16,0,0,0-3.67,2.7,2.44,2.44,0,0,0,.39,2,2.64,2.64,0,0,0,2,1h.41a3,3,0,0,0,2.82-1.55,2.51,2.51,0,0,0,2.32,2l.55,0A3.05,3.05,0,0,0,31.56,5a2.87,2.87,0,0,0-.16.61,2.91,2.91,0,0,0,.53,2.29,2.79,2.79,0,0,0,2,1h.33a3.75,3.75,0,0,0,1-.13,3.51,3.51,0,0,0-.13.49v0a2.66,2.66,0,0,0,2.28,3.22,4.89,4.89,0,0,0,.55.05,4.79,4.79,0,0,0-2.15,3.1,4.73,4.73,0,0,0,.69,3.61,5.16,5.16,0,0,0,3.24,2.2,4.58,4.58,0,0,0,.9.09,5.08,5.08,0,0,0,4.86-3.85A4.63,4.63,0,0,0,44.8,14.25ZM23,4a1,1,0,0,1-.74-.29A.92.92,0,0,1,22.22,3a1.41,1.41,0,0,1,1.54-1.31l.28,0c.36,0,.74.06.73,1.13C24.62,3.49,24.27,4.07,23,4Zm7.38-.59c-.14.84-.74,1.21-1.77,1.09-.47,0-1-.19-.87-1.27a1.17,1.17,0,0,1,.47-.84,1.56,1.56,0,0,1,1-.33,1.14,1.14,0,0,1,.26,0A1.05,1.05,0,0,1,30.41,3.38Zm3.67,3.83a1.07,1.07,0,0,1-.79-.36,1.18,1.18,0,0,1-.18-.93c0-.29.16-1,1.59-1.13,1.06.29,1.07.84,1,1.34C35.57,6.91,35,7.28,34.08,7.21ZM36.84,9.6c.11-.53.38-1,1.48-.89.86.12,1.27.57,1.23,1.34a.72.72,0,0,1-.31.48,2,2,0,0,1-1.51.34C37.07,10.75,36.74,10.51,36.84,9.6Zm7,7.81a3.3,3.3,0,0,1-3.72,2.43,3.42,3.42,0,0,1-2.14-1.45,3.08,3.08,0,0,1,3.22-4.7,3.44,3.44,0,0,1,2.18,1.51A2.87,2.87,0,0,1,43.8,17.41Z"/></g></g></svg>