<svg xmlns="http://www.w3.org/2000/svg" viewBox="0 0 186.32 41.65"><defs><style>.cls-1{fill:#ffb206;}</style></defs><title>Asset 3</title><g id="Layer_2" data-name="Layer 2"><g id="Layer_7" data-name="Layer 7"><path class="cls-1" d="M2.8,19.47a62.43,62.43,0,0,1,30.66,1.37c6.12,1.95,11.6,4.87,18.37,5.7C64.94,28.15,75,21.16,87,19.23c8.89-1.43,15.73,2.13,23.58,4.25a67,67,0,0,0,21.18,2.09c18.05-1.06,32.47-12.43,50.47-4.44,2.46,1.09,4.73-1.58,2.29-2.67A41.15,41.15,0,0,0,164.34,15c-8.56.72-15.49,4.39-23.53,6.17a61.48,61.48,0,0,1-29.85-1c-6.78-1.95-13-4.8-20.64-4.47-15.06.65-26.81,11.09-42.45,6.71-7.65-2.15-14.06-5.49-22.32-6.7a71.28,71.28,0,0,0-23.95.72C-1.21,17,0,20,2.8,19.47Z"/><path class="cls-1" d="M3.55,4.6A62.43,62.43,0,0,1,34.21,6c6.12,1.94,11.6,4.87,18.37,5.7,13.11,1.61,23.15-5.39,35.17-7.32,8.89-1.42,15.73,2.13,23.58,4.26a67,67,0,0,0,21.18,2.09C150.56,9.63,165-1.74,183,6.26c2.46,1.09,4.73-1.59,2.29-2.67A41.16,41.16,0,0,0,165.09.14c-8.56.72-15.49,4.39-23.53,6.18a61.65,61.65,0,0,1-29.86-1c-6.77-2-13-4.81-20.63-4.48C76,1.54,64.26,12,48.62,7.6,41,5.45,34.56,2.1,26.3.9a71.28,71.28,0,0,0-23.95.72c-2.81.54-1.61,3.53,1.2,3Z"/><path class="cls-1" d="M3.55,34.34a62.43,62.43,0,0,1,30.66,1.37c6.12,1.95,11.6,4.87,18.37,5.71C65.69,43,75.73,36,87.75,34.1c8.89-1.43,15.73,2.13,23.58,4.25a66.46,66.46,0,0,0,21.18,2.09C150.56,39.38,165,28,183,36c2.46,1.09,4.73-1.58,2.29-2.66a41,41,0,0,0-20.18-3.45c-8.56.72-15.49,4.39-23.53,6.17a61.41,61.41,0,0,1-29.86-1c-6.77-2-13-4.8-20.63-4.47-15.06.65-26.81,11.1-42.45,6.71C41,35.19,34.56,31.85,26.3,30.65a71.28,71.28,0,0,0-23.95.71c-2.81.55-1.61,3.53,1.2,3Z"/></g></g></svg>