<?xml version="1.0" encoding="utf-8"?>
<!-- Generator: Adobe Illustrator 22.1.0, SVG Export Plug-In . SVG Version: 6.00 Build 0)  -->
<svg version="1.1" id="Layer_1" xmlns="http://www.w3.org/2000/svg" xmlns:xlink="http://www.w3.org/1999/xlink" x="0px" y="0px"
	 viewBox="0 0 186.3 41.7" style="enable-background:new 0 0 186.3 41.7;" xml:space="preserve">
<title>Asset 3</title>
<g id="Layer_2_1_">
	<g id="Layer_7">
		<path style="fill:#FFB206;" d="M2.8,19.5c10.2-2.1,20.7-1.6,30.7,1.4c6.1,2,11.6,4.9,18.4,5.7C64.9,28.1,75,21.2,87,19.2
			c8.9-1.4,15.7,2.1,23.6,4.3c6.9,1.8,14.1,2.5,21.2,2.1c18.1-1.1,32.5-12.4,50.5-4.4c2.5,1.1,4.7-1.6,2.3-2.7
			c-6.3-2.8-13.3-4-20.2-3.5c-8.6,0.7-15.5,4.4-23.5,6.2c-9.9,2.1-20.1,1.8-29.8-1c-6.8-2-13-4.8-20.6-4.5
			c-15.1,0.6-26.8,11.1-42.5,6.7c-7.7-2.1-14.1-5.5-22.3-6.7c-8-1.1-16.1-0.9-24,0.7C-1.2,17,0,20,2.8,19.5z"/>
		<path style="fill:#FFB206;" d="M3.5,4.6C13.7,2.5,24.3,3,34.2,6c6.1,1.9,11.6,4.9,18.4,5.7c13.1,1.6,23.2-5.4,35.2-7.3
			c8.9-1.4,15.7,2.1,23.6,4.3c6.9,1.8,14.1,2.5,21.2,2.1c18-1.1,32.5-12.5,50.5-4.5c2.5,1.1,4.7-1.6,2.3-2.7
			c-6.3-2.8-13.3-4-20.2-3.5c-8.6,0.7-15.5,4.4-23.5,6.2c-9.9,2.1-20.1,1.8-29.9-1c-6.8-2-13-4.8-20.6-4.5C76,1.5,64.3,12,48.6,7.6
			C41,5.4,34.6,2.1,26.3,0.9c-8-1.1-16.1-0.9-24,0.7C-0.5,2.2,0.7,5.2,3.5,4.6L3.5,4.6z"/>
		<path style="fill:#FFB206;" d="M3.5,34.3c10.2-2.1,20.7-1.6,30.7,1.4c6.1,2,11.6,4.9,18.4,5.7C65.7,43,75.7,36,87.8,34.1
			c8.9-1.4,15.7,2.1,23.6,4.3c6.9,1.8,14.1,2.5,21.2,2.1C150.6,39.4,165,28,183,36c2.5,1.1,4.7-1.6,2.3-2.7
			c-6.3-2.8-13.3-4-20.2-3.5c-8.6,0.7-15.5,4.4-23.5,6.2c-9.9,2.1-20.1,1.8-29.9-1c-6.8-2-13-4.8-20.6-4.5
			C76,31.2,64.3,41.7,48.6,37.3c-7.6-2.1-14.1-5.4-22.3-6.6c-8-1.1-16.1-0.9-24,0.7C-0.5,31.9,0.7,34.9,3.5,34.3L3.5,34.3z"/>
	</g>
</g>
</svg>
