<?xml version="1.0" encoding="utf-8"?>
<!-- Generator: Adobe Illustrator 22.1.0, SVG Export Plug-In . SVG Version: 6.00 Build 0)  -->
<svg version="1.1" id="Layer_1" xmlns="http://www.w3.org/2000/svg" xmlns:xlink="http://www.w3.org/1999/xlink" x="0px" y="0px"
	 viewBox="0 0 55.5 55.5" style="enable-background:new 0 0 55.5 55.5;" xml:space="preserve">
<title>icon-downs</title>
<g id="Layer_2_1_">
	<g id="Layer_7">
		<path style="fill:#FFFFFF;" d="M19.9,55.5V45.1c0-8.7-6.9-16-6.9-26C13.2,9,21.6,1.1,31.6,1.3c9.7,0.2,17.6,8.1,17.8,17.8l5.2,13
			h-5.2v7.8c0,2.9-2.3,5.2-5.2,5.2c0,0,0,0,0,0H39v10.4L19.9,55.5z"/>
		<rect x="36.4" y="44.2" style="fill:#5F6465;" width="2.6" height="1.7"/>
		<path style="fill:#5F6465;" d="M39.9,55.5h-1.7V45.1c0-0.5,0.4-0.9,0.9-0.9h5.2c2.4,0,4.3-1.9,4.3-4.3v-7.8c0-0.5,0.4-0.9,0.9-0.9
			c0,0,0,0,0,0h3.9l-4.7-11.8c0-0.1-0.1-0.2-0.1-0.3c0-9.6-7.8-17.3-17.3-17.3c-2.6,0-5.1,0.6-7.4,1.7L23,1.8
			c9.5-4.5,20.9-0.5,25.4,9c1.2,2.5,1.8,5.3,1.9,8l5.1,12.9c0.1,0.3,0.1,0.6-0.1,0.8c-0.2,0.2-0.4,0.4-0.7,0.4h-4.3v6.9
			c0,3.3-2.7,6.1-6.1,6.1h-4.3V55.5z"/>
		<path style="fill:#5F6465;" d="M20.8,55.5h-1.7V45.1c0-4-1.6-7.7-3.2-11.7c-0.4-0.9-0.8-1.8-1.1-2.7l1.6-0.7
			c0.4,0.9,0.7,1.8,1.1,2.7c1.7,4.1,3.3,8,3.3,12.4L20.8,55.5z"/>
		<path style="fill:#76E1E5;" d="M25.1,13.9c0.1-1.4,1.2-2.5,2.6-2.6l-2.6-5.2c-1,1-2.5,1-3.5,0s-1-2.5,0-3.5L16.5,0
			c-0.1,1.4-1.2,2.5-2.6,2.6c-1.4-0.1-2.5-1.2-2.6-2.6L6.1,2.6c1,1,1,2.5,0,3.5s-2.5,1-3.5,0c-1.2,1.6-2,3.3-2.6,5.2
			c1.4,0.1,2.5,1.2,2.6,2.6c-0.1,1.4-1.2,2.5-2.6,2.6l2.6,5.2c1-1,2.5-1,3.5,0s1,2.5,0,3.5l5.2,2.6c0.1-1.4,1.2-2.5,2.6-2.6
			c1.4,0.1,2.5,1.2,2.6,2.6l5.2-2.6c-1-1-1-2.5,0-3.5s2.5-1,3.5,0l2.6-5.2C26.3,16.4,25.2,15.3,25.1,13.9z"/>
		<circle style="fill:#FFFFFF;" cx="13.9" cy="13.9" r="3.5"/>
		<path style="fill:#5F6465;" d="M13.9,22.5c-4.8,0-8.7-3.9-8.7-8.7s3.9-8.7,8.7-8.7s8.7,3.9,8.7,8.7C22.5,18.7,18.7,22.5,13.9,22.5
			z M13.9,6.9c-3.8,0-6.9,3.1-6.9,6.9s3.1,6.9,6.9,6.9c3.8,0,6.9-3.1,6.9-6.9c0,0,0,0,0,0C20.8,10.1,17.7,7,13.9,6.9z"/>
		<rect x="13" y="13" style="fill:#5F6465;" width="1.7" height="1.7"/>
		<path style="fill:#FFC469;" d="M41.7,30.6c-1.1,0-2-0.9-2-2c0-1.1,0.9-2,2-2c0.2,0,0.3,0,0.5,0.1c-0.2-1.1-0.7-2.2-1.3-3.2
			c-0.1,0.1-0.2,0.3-0.3,0.4c-0.8,0.8-2.1,0.8-2.8,0s-0.8-2.1,0-2.8c0.1-0.1,0.2-0.2,0.4-0.3c-1-0.6-2.1-1.1-3.2-1.3
			c0,0.2,0.1,0.3,0.1,0.5c0,1.1-0.9,2-2,2c-1.1,0-2-0.9-2-2c0-0.2,0-0.3,0.1-0.5c-1.1,0.2-2.2,0.7-3.2,1.3c0.1,0.1,0.3,0.2,0.4,0.3
			c0.8,0.8,0.8,2.1,0,2.9s-2.1,0.8-2.9,0c-0.1-0.1-0.2-0.2-0.3-0.4c-0.6,1-1.1,2.1-1.3,3.2c0.2,0,0.3-0.1,0.5-0.1c1.1,0,2,0.9,2,2
			c0,1.1-0.9,2-2,2c-0.2,0-0.3,0-0.5-0.1c0.3,1.1,0.7,2.2,1.3,3.1c0.1-0.1,0.2-0.3,0.3-0.4c0.8-0.8,2.1-0.8,2.9,0s0.8,2.1,0,2.9
			c-0.1,0.1-0.2,0.2-0.4,0.3c1,0.6,2.1,1.1,3.2,1.3c0-0.2-0.1-0.3-0.1-0.5c0-1.1,0.9-2,2-2c1.1,0,2,0.9,2,2c0,0.2,0,0.3-0.1,0.5
			c1.1-0.2,2.2-0.7,3.2-1.3c-0.1-0.1-0.3-0.2-0.4-0.3c-0.8-0.8-0.8-2.1,0-2.9s2.1-0.8,2.9,0c0.1,0.1,0.2,0.2,0.3,0.4
			c0.6-1,1.1-2,1.3-3.2C42.1,30.6,41.9,30.6,41.7,30.6z"/>
		<path style="fill:#5F6465;" d="M32.9,32.9c-2.4,0-4.3-1.9-4.3-4.3s1.9-4.3,4.3-4.3s4.3,1.9,4.3,4.3c0,0,0,0,0,0
			C37.3,31,35.3,32.9,32.9,32.9z M32.9,26c-1.4,0-2.6,1.2-2.6,2.6c0,1.4,1.2,2.6,2.6,2.6c1.4,0,2.6-1.2,2.6-2.6l0,0
			C35.5,27.2,34.4,26,32.9,26C32.9,26,32.9,26,32.9,26L32.9,26z"/>
	</g>
</g>
</svg>
