<?xml version="1.0" encoding="utf-8"?>
<!-- Generator: Adobe Illustrator 22.1.0, SVG Export Plug-In . SVG Version: 6.00 Build 0)  -->
<svg version="1.1" id="Layer_1" xmlns="http://www.w3.org/2000/svg" xmlns:xlink="http://www.w3.org/1999/xlink" x="0px" y="0px"
	 viewBox="0 0 55.5 55.5" style="enable-background:new 0 0 55.5 55.5;" xml:space="preserve">
<title>icon-autism</title>
<g id="Layer_2_1_">
	<g id="Layer_7">
		<circle style="fill:#76DFE4;" cx="27.7" cy="27.7" r="27.7"/>
		<path style="fill:#FFFFFF;" d="M13.9,55.5v-6.9c0-8.7-6.9-16-6.9-26C6.7,12.5,14.7,4.1,24.7,3.9s18.4,7.7,18.6,17.8
			c0,0.3,0,0.6,0,0.9l5.2,13h-5.2v7.8c0,2.9-2.3,5.2-5.2,5.2c0,0,0,0,0,0h-5.2v6.9H13.9z"/>
		<rect x="30.3" y="47.7" style="fill:#5F6465;" width="2.6" height="1.7"/>
		<path style="fill:#5F6465;" d="M33.8,55.5h-1.7v-6.9c0-0.5,0.4-0.9,0.9-0.9c0,0,0,0,0,0h5.2c2.4,0,4.3-1.9,4.3-4.3v-7.8
			c0-0.5,0.4-0.9,0.8-0.9c0,0,0,0,0,0h3.9l-4.7-11.8c0-0.1-0.1-0.2-0.1-0.3c0-9.6-7.8-17.3-17.3-17.3S7.8,13,7.8,22.5
			c0,5,1.8,9.4,3.6,13.7s3.4,8,3.4,12.3v6.9H13v-6.9c0-4-1.6-7.7-3.2-11.7C8,32.5,6.1,27.9,6.1,22.5C6,12,14.5,3.4,25.1,3.4
			c10.5,0,19.1,8.5,19.2,19l5.1,12.9c0.2,0.4,0,1-0.5,1.1c-0.1,0-0.2,0.1-0.3,0.1h-4.3v6.9c0,3.4-2.7,6.1-6.1,6.1h-4.3V55.5z"/>
		<circle style="fill:#F39B15;" cx="25.1" cy="22.5" r="13.9"/>
		<rect x="24.3" y="10.4" style="fill:#5F6465;" width="1.7" height="9.5"/>
		<path style="fill:#5F6465;" d="M25.1,20.8c-0.2,0-0.4-0.1-0.6-0.3l-3.5-3.5l1.2-1.2l2.9,2.8l2.9-2.8l1.2,1.2l-3.5,3.5
			C25.6,20.7,25.4,20.8,25.1,20.8z"/>
		<rect x="24.3" y="25.1" style="fill:#5F6465;" width="1.7" height="9.5"/>
		<path style="fill:#5F6465;" d="M28,29.2l-2.9-2.9l-2.9,2.9L21.1,28l3.5-3.5c0.3-0.3,0.9-0.3,1.2,0c0,0,0,0,0,0l3.5,3.5L28,29.2z"
			/>
		<rect x="27.7" y="21.7" style="fill:#5F6465;" width="9.5" height="1.7"/>
		<path style="fill:#5F6465;" d="M30.6,26.6l-3.5-3.5c-0.3-0.3-0.3-0.9,0-1.2c0,0,0,0,0,0l3.5-3.5l1.2,1.2L29,22.5l2.9,2.9
			L30.6,26.6z"/>
		<rect x="13" y="21.7" style="fill:#5F6465;" width="9.5" height="1.7"/>
		<path style="fill:#5F6465;" d="M19.7,26.6l-1.2-1.2l2.9-2.9l-2.9-2.9l1.2-1.2l3.5,3.5c0.3,0.3,0.3,0.9,0,1.2c0,0,0,0,0,0
			L19.7,26.6z"/>
	</g>
</g>
</svg>
