<?xml version="1.0" encoding="utf-8"?>
<!-- Generator: Adobe Illustrator 22.1.0, SVG Export Plug-In . SVG Version: 6.00 Build 0)  -->
<svg version="1.1" id="Layer_1" xmlns="http://www.w3.org/2000/svg" xmlns:xlink="http://www.w3.org/1999/xlink" x="0px" y="0px"
	 viewBox="0 0 55.5 55.5" style="enable-background:new 0 0 55.5 55.5;" xml:space="preserve">
<title>icon-speech-therapy</title>
<g id="Layer_2_1_">
	<g id="Layer_7">
		<path style="fill:#F59D15;" d="M17.3,55.5V45.1c0-8.7-6.9-16-6.9-26S20.3,0,30.3,0s19.9,9,19.9,19.1l5.2,13h-5.2v7.8
			c0,2.9-2.3,5.2-5.2,5.2c0,0,0,0,0,0h-6.9v10.4L17.3,55.5z"/>
		<polygon style="fill:#FFFFFF;" points="6.1,32.1 23.4,32.1 30.3,37.3 30.3,32.1 35.5,32.1 35.5,13 6.1,13 		"/>
		<polygon style="fill:#76E1E5;" points="28.6,26.9 13,26.9 6.1,32.1 6.1,26.9 0.9,26.9 0.9,7.8 28.6,7.8 		"/>
		<path style="fill:#5F6465;" d="M6.1,32.9c-0.5,0-0.9-0.4-0.9-0.8c0,0,0,0,0,0v-4.3H0.9c-0.5,0-0.9-0.4-0.9-0.9V7.8
			c0-0.5,0.4-0.9,0.9-0.9h27.7c0.5,0,0.9,0.4,0.9,0.9c0,0,0,0,0,0v19.1c0,0.5-0.4,0.9-0.8,0.9c0,0,0,0,0,0H13.3l-6.7,5
			C6.4,32.9,6.3,32.9,6.1,32.9z M1.7,26h4.3c0.5,0,0.9,0.4,0.9,0.8c0,0,0,0,0,0v3.5l5.6-4.2c0.2-0.1,0.3-0.2,0.5-0.2h14.7V8.7h-26
			L1.7,26z"/>
		<path style="fill:#5F6465;" d="M30.3,38.1c-0.2,0-0.4-0.1-0.5-0.2l-6.7-5h-11v-1.8h11.3c0.2,0,0.4,0.1,0.5,0.2l5.6,4.2v-3.5
			c0-0.5,0.4-0.9,0.9-0.9c0,0,0,0,0,0h4.3V13.9h-3.5v-1.7h4.3c0.5,0,0.9,0.4,0.9,0.8c0,0,0,0,0,0v19.1c0,0.5-0.4,0.9-0.9,0.9h-4.3
			v4.3c0,0.3-0.2,0.6-0.5,0.8C30.6,38.1,30.5,38.1,30.3,38.1z"/>
		<rect x="10.4" y="16.5" style="fill:#5F6465;" width="1.7" height="1.7"/>
		<rect x="13.9" y="16.5" style="fill:#5F6465;" width="1.7" height="1.7"/>
		<rect x="17.3" y="16.5" style="fill:#5F6465;" width="1.7" height="1.7"/>
	</g>
</g>
</svg>
