<?xml version="1.0" encoding="utf-8"?>
<!-- Generator: Adobe Illustrator 22.1.0, SVG Export Plug-In . SVG Version: 6.00 Build 0)  -->
<svg version="1.1" id="Layer_1" xmlns="http://www.w3.org/2000/svg" xmlns:xlink="http://www.w3.org/1999/xlink" x="0px" y="0px"
	 viewBox="0 0 55.5 55.5" style="enable-background:new 0 0 55.5 55.5;" xml:space="preserve">
<title>icon-cerebral</title>
<g id="Layer_2_1_">
	<g id="Layer_7">
		<circle style="fill:#76E1E5;" cx="27.7" cy="27.7" r="27.7"/>
		<path style="fill:#FFFFFF;" d="M14.7,55.5v-6.9c0-8.7-6.9-16-6.9-26C7.6,12.5,15.5,4.1,25.6,3.9S44,11.6,44.2,21.7
			c0,0.3,0,0.6,0,0.9l5.2,13h-5.2v7.8c0,2.9-2.3,5.2-5.2,5.2c0,0,0,0,0,0h-5.2v6.9H14.7z"/>
		<rect x="31.2" y="47.7" style="fill:#5F6465;" width="2.6" height="1.7"/>
		<path style="fill:#5F6465;" d="M34.7,55.5h-1.7v-6.9c0-0.5,0.4-0.9,0.9-0.9c0,0,0,0,0,0H39c2.4,0,4.3-1.9,4.3-4.3v-7.8
			c0-0.5,0.4-0.9,0.9-0.9h3.9l-4.7-11.8c0-0.1-0.1-0.2-0.1-0.3C43.6,13,36,5,26.4,4.8S8.9,12.1,8.7,21.7c0,0.3,0,0.6,0,0.8
			c0,5,1.8,9.4,3.6,13.7s3.3,8,3.3,12.3v6.9h-1.7v-6.9c0-4-1.6-7.7-3.2-11.7c-1.8-4.4-3.7-8.9-3.7-14.3C7.1,12,15.8,3.6,26.4,3.8
			C36.6,4,44.8,12.2,45.1,22.4l5.1,12.9c0.1,0.3,0.1,0.6-0.1,0.8c-0.2,0.2-0.4,0.4-0.7,0.4h-4.3v6.9c0,3.4-2.7,6.1-6.1,6.1h-4.3
			V55.5z"/>
		<path style="fill:#F59D15;" d="M25.1,24.3h9.5v-5.2H19.9v13.9h1.7v-5.2C21.7,25.8,23.2,24.3,25.1,24.3z"/>
		<circle style="fill:#F59D15;" cx="34.7" cy="19.1" r="5.2"/>
		<circle style="fill:#F59D15;" cx="19.1" cy="17.3" r="5.2"/>
		<circle style="fill:#F59D15;" cx="26.9" cy="14.7" r="6.9"/>
		<circle style="fill:#F59D15;" cx="15.6" cy="23.4" r="4.3"/>
		<rect x="25.1" y="17.3" style="fill:#5F6465;" width="1.7" height="1.7"/>
		<rect x="28.6" y="17.3" style="fill:#5F6465;" width="1.7" height="1.7"/>
		<rect x="21.7" y="17.3" style="fill:#5F6465;" width="1.7" height="1.7"/>
		<path style="fill:#F59D15;" d="M15.6,24.3v3.5c2.9,0,4.3,2.3,4.3,5.2v22.5h1.7V24.3H15.6z"/>
		<rect x="15.6" y="19.1" style="fill:#F59D15;" width="4.3" height="6.1"/>
	</g>
</g>
</svg>
